<?xml version="1.0" standalone="no"?>
<!DOCTYPE svg PUBLIC "-//W3C//DTD SVG 20010904//EN"
 "http://www.w3.org/TR/2001/REC-SVG-20010904/DTD/svg10.dtd">
<svg version="1.0" xmlns="http://www.w3.org/2000/svg"
 width="300.000000pt" height="168.000000pt" viewBox="0 0 300.000000 168.000000"
 preserveAspectRatio="xMidYMid meet">

<g transform="translate(0.000000,168.000000) scale(0.100000,-0.100000)"
fill="#000000" stroke="none">
<path d="M2177 1294 c-3 -3 -3 -12 0 -20 3 -8 -2 -25 -11 -39 -9 -13 -16 -33
-16 -45 0 -14 -7 -20 -22 -20 -13 0 -33 -3 -45 -6 -37 -10 -28 22 10 34 25 8
27 10 10 11 -28 1 -63 -32 -63 -60 0 -11 5 -40 11 -65 10 -39 9 -47 -6 -64
-17 -18 -16 -19 9 -26 16 -4 32 -1 41 6 14 11 14 16 -2 39 -9 14 -20 43 -23
64 -6 32 -4 39 13 48 12 7 22 8 26 1 3 -5 17 -8 31 -7 14 1 30 -2 37 -7 7 -5
17 -7 23 -3 14 9 12 -15 -3 -46 -10 -18 -12 -42 -6 -90 7 -61 -4 -139 -21
-139 -13 0 -30 51 -25 73 5 18 2 23 -14 23 -11 0 -18 -3 -15 -7 2 -4 -24 -7
-58 -8 -34 0 -66 -5 -72 -11 -10 -10 -3 -10 91 -12 24 0 41 -4 38 -8 -3 -5 1
-11 7 -13 7 -3 1 -6 -14 -6 -16 -1 -28 -5 -28 -11 0 -5 10 -9 21 -7 57 6 10
-67 -54 -84 -50 -13 -58 -23 -43 -54 12 -26 32 -32 84 -26 25 2 32 8 33 25 0
18 2 17 11 -7 5 -15 15 -26 21 -25 7 1 23 -3 37 -10 22 -12 23 -11 8 1 -25 20
-22 30 4 16 18 -10 20 -9 15 4 -4 11 -2 14 8 11 11 -4 12 -12 4 -31 -5 -14 -8
-28 -5 -30 2 -2 8 10 14 26 6 17 18 31 26 31 8 0 19 8 25 17 5 10 20 18 33 18
36 2 71 16 93 35 11 10 34 24 50 30 l30 12 -35 14 c-19 9 -51 17 -71 19 -30 3
-66 15 -123 43 -5 3 -5 -1 -1 -8 5 -8 4 -11 -3 -6 -17 11 -7 90 17 129 12 20
20 41 16 47 -3 5 0 10 8 10 8 0 20 7 27 15 10 12 9 18 -4 31 -10 9 -20 14 -23
10 -9 -9 -53 55 -46 67 4 6 0 8 -9 5 -11 -5 -19 4 -28 33 -14 40 -32 63 -43
53z"/>
<path d="M2343 1169 c-7 -18 -11 -34 -9 -37 7 -7 27 39 24 55 -2 9 -8 2 -15
-18z"/>
<path d="M1903 1150 c-30 -12 -29 -16 5 -14 15 1 35 3 45 3 10 1 15 6 12 11
-7 12 -32 12 -62 0z"/>
<path d="M1803 1083 c-18 -7 -16 -23 2 -23 8 0 15 7 15 15 0 8 -1 15 -2 14 -2
0 -9 -3 -15 -6z"/>
<path d="M1950 1008 c-12 -22 -12 -22 6 -6 10 10 15 20 12 24 -4 3 -12 -5 -18
-18z"/>
<path d="M2684 725 c-6 -26 -7 -55 -2 -94 4 -33 28 -40 28 -9 0 13 5 29 11 35
7 7 7 22 -1 52 -12 46 -27 53 -36 16z"/>
<path d="M2490 699 c0 -18 2 -19 15 -5 8 8 15 17 15 20 0 3 -7 6 -15 6 -9 0
-15 -9 -15 -21z"/>
<path d="M2440 700 c0 -6 7 -10 15 -10 8 0 15 2 15 4 0 2 -7 6 -15 10 -8 3
-15 1 -15 -4z"/>
<path d="M2721 613 c-1 -12 -9 -25 -18 -28 -21 -9 -128 -123 -122 -130 3 -2
29 11 58 30 29 19 54 35 56 35 12 0 12 -36 0 -60 -8 -16 -15 -31 -15 -33 0
-13 33 -15 56 -5 25 12 26 15 20 68 -7 62 -34 158 -35 123z"/>
<path d="M2305 600 c-3 -5 -1 -10 4 -10 6 0 11 5 11 10 0 6 -2 10 -4 10 -3 0
-8 -4 -11 -10z"/>
<path d="M2390 590 c0 -5 5 -10 10 -10 6 0 10 5 10 10 0 6 -4 10 -10 10 -5 0
-10 -4 -10 -10z"/>
<path d="M2421 584 c0 -11 3 -14 6 -6 3 7 2 16 -1 19 -3 4 -6 -2 -5 -13z"/>
<path d="M2548 539 c-14 -30 -28 -66 -32 -81 -3 -15 -17 -35 -31 -44 -28 -18
-33 -51 -10 -60 24 -10 19 -52 -6 -56 -35 -5 -44 -30 -25 -69 15 -33 15 -38 0
-75 -18 -43 -53 -86 -64 -79 -5 3 -11 -6 -14 -19 -3 -13 -9 -31 -12 -40 -6
-15 5 -16 102 -14 l109 3 -1 55 c-2 97 -16 224 -30 268 -10 31 -11 49 -4 62 6
11 12 32 14 47 1 16 11 52 20 81 24 73 15 85 -16 21z"/>
<path d="M2392 425 c0 -16 2 -22 5 -12 2 9 2 23 0 30 -3 6 -5 -1 -5 -18z"/>
<path d="M2411 399 c-1 -35 21 -80 34 -67 4 4 3 13 -1 20 -5 7 -14 29 -20 48
l-12 35 -1 -36z"/>
<path d="M2698 361 c-56 -48 -59 -67 -8 -54 18 5 21 2 20 -18 -4 -41 -1 -49
16 -42 15 5 16 -1 10 -53 -5 -42 -4 -55 3 -44 9 13 11 12 11 -5 -1 -20 -32
-65 -46 -65 -12 0 -74 -50 -74 -60 0 -5 13 -5 29 0 22 6 33 4 42 -6 10 -12 14
-12 28 -1 9 8 24 17 34 20 15 6 17 21 17 115 0 124 -10 262 -19 262 -3 -1 -32
-23 -63 -49z"/>
<path d="M2549 373 c-13 -16 -12 -17 4 -4 9 7 17 15 17 17 0 8 -8 3 -21 -13z"/>
<path d="M1548 74 c-5 -4 -8 -16 -8 -28 0 -14 3 -17 11 -9 6 6 9 19 7 28 -1 9
-6 13 -10 9z"/>
<path d="M2332 25 c-6 -14 -7 -25 -2 -25 9 0 25 39 18 46 -3 2 -10 -7 -16 -21z"/>
<path d="M1550 10 c-12 -8 -10 -10 8 -10 13 0 20 4 17 10 -7 12 -6 12 -25 0z"/>
<path d="M2745 10 c-3 -5 1 -10 9 -10 9 0 16 5 16 10 0 6 -4 10 -9 10 -6 0
-13 -4 -16 -10z"/>
</g>
</svg>
