<?xml version="1.0" standalone="no"?>
<!DOCTYPE svg PUBLIC "-//W3C//DTD SVG 20010904//EN"
 "http://www.w3.org/TR/2001/REC-SVG-20010904/DTD/svg10.dtd">
<svg version="1.0" xmlns="http://www.w3.org/2000/svg"
 width="275.000000pt" height="183.000000pt" viewBox="0 0 275.000000 183.000000"
 preserveAspectRatio="xMidYMid meet">
<metadata>
Created by potrace 1.10, written by Peter Selinger 2001-2011
</metadata>
<g transform="translate(0.000000,183.000000) scale(0.100000,-0.100000)"
fill="#000000" stroke="none">
<path d="M1956 1672 c18 -12 53 -93 47 -111 -2 -9 4 -4 13 12 20 28 48 38 38
12 -4 -10 0 -15 12 -16 16 0 15 -2 -3 -9 -26 -11 -31 -30 -7 -30 10 0 12 -4 7
-12 -8 -13 -10 -32 -15 -121 -2 -32 1 -47 10 -47 7 0 12 -14 12 -35 0 -19 4
-35 9 -35 12 0 5 46 -10 77 -7 12 -9 33 -5 46 5 20 10 24 28 19 19 -5 20 -4 7
10 -7 9 -17 14 -21 11 -10 -6 -10 39 0 54 6 9 13 4 26 -17 9 -17 14 -30 10
-30 -4 0 3 -11 16 -25 l24 -26 12 23 c10 19 8 25 -20 52 -17 17 -32 37 -32 44
-2 28 -5 33 -14 27 -5 -3 -10 3 -10 14 0 12 -5 21 -11 21 -5 0 -7 5 -4 10 3 6
-5 14 -19 20 -14 5 -26 14 -26 20 0 5 -4 10 -10 10 -5 0 -19 9 -30 20 -11 11
-26 20 -32 20 -9 0 -9 -3 -2 -8z"/>
<path d="M1943 1593 c-7 -2 -13 -19 -13 -37 0 -18 -5 -37 -10 -44 -6 -6 -7
-10 -3 -7 3 3 12 -4 20 -15 8 -11 20 -20 27 -20 17 0 28 -51 14 -67 -8 -10 -6
-13 4 -13 8 0 20 -10 26 -22 8 -18 11 -19 11 -6 1 9 -3 19 -8 22 -5 3 -11 17
-13 31 -3 13 -1 22 3 19 5 -3 9 -11 9 -19 0 -8 4 -17 10 -20 9 -6 8 4 -7 43
-3 9 -7 21 -7 25 -1 4 -8 12 -16 17 -12 8 -12 11 3 28 19 20 23 37 7 27 -6 -3
-13 1 -16 9 -3 9 -11 16 -17 16 -7 0 -7 -4 1 -12 7 -7 12 -19 12 -27 0 -14 -1
-14 -10 -1 -9 13 -11 13 -21 0 -7 -11 -8 -6 -3 20 3 19 11 41 16 48 11 12 3
14 -19 5z"/>
<path d="M1681 1550 c-1 -9 -10 -23 -21 -33 -13 -11 -20 -28 -19 -49 l0 -33
18 39 c10 24 28 43 46 51 26 12 27 13 8 14 -12 1 -24 7 -26 14 -4 8 -6 7 -6
-3z"/>
<path d="M1831 1513 c-10 -11 -10 -18 -2 -26 8 -8 11 -8 11 1 0 7 13 12 30 12
17 0 30 5 30 11 0 6 -7 8 -16 5 -9 -4 -22 -2 -28 3 -7 6 -16 4 -25 -6z"/>
<path d="M2173 1387 c-11 -18 -24 -43 -28 -57 -4 -14 -16 -33 -26 -43 -11 -10
-19 -22 -19 -27 0 -6 -9 -10 -21 -10 -18 0 -20 -4 -14 -30 4 -20 3 -30 -5 -30
-7 0 -9 -8 -5 -20 4 -14 -2 -28 -22 -47 -20 -19 -23 -24 -9 -19 16 6 17 4 6
-9 -18 -22 -32 0 -24 40 l5 30 -14 -30 c-18 -38 -36 -135 -25 -135 4 0 8 6 8
14 0 17 27 46 42 46 6 0 8 -10 4 -24 -7 -30 20 -58 30 -31 4 9 1 28 -5 43 -8
17 -9 28 -2 30 5 2 22 34 36 73 15 38 30 69 34 69 4 0 27 16 50 37 36 30 40
38 27 45 -21 12 -20 47 0 77 9 13 13 26 8 31 -5 5 -18 -5 -31 -23z"/>
<path d="M1653 1354 c-18 -17 -21 -24 -11 -24 9 0 21 7 28 14 9 11 18 12 37 5
13 -5 29 -7 34 -3 5 3 9 0 9 -5 0 -6 11 -11 25 -11 21 0 25 4 24 28 -2 23 -2
24 -6 5 -5 -26 -7 -27 -35 -12 -52 28 -77 29 -105 3z"/>
<path d="M2203 1345 c-1 -19 3 -35 8 -35 5 0 9 16 9 35 0 19 -4 35 -8 35 -4 0
-8 -16 -9 -35z"/>
<path d="M1860 1352 c-30 -14 -36 -23 -38 -55 -5 -51 7 -97 23 -97 8 0 16 -4
19 -9 3 -5 -6 -8 -20 -8 -27 0 -52 -18 -41 -29 3 -4 24 -7 47 -8 25 0 40 -5
40 -13 0 -7 4 -13 9 -13 5 0 12 -7 15 -16 4 -12 2 -15 -9 -10 -18 7 -20 -15
-3 -32 9 -9 9 -12 0 -12 -7 0 -12 -7 -12 -15 0 -8 5 -15 10 -15 18 0 11 -25
-18 -66 -22 -29 -27 -45 -22 -64 7 -22 8 -20 15 18 4 25 11 39 15 32 5 -8 10
-3 15 12 6 20 8 21 12 5 5 -18 5 -18 18 0 9 12 10 22 4 30 -6 6 -11 35 -11 65
-1 62 -10 90 -45 141 -15 21 -27 50 -28 63 -1 28 27 50 47 38 7 -4 22 -9 34
-10 18 -2 23 4 29 33 3 19 5 36 3 38 -16 13 -78 12 -108 -3z m90 -17 c0 -8 -3
-15 -7 -16 -38 -4 -69 -12 -79 -20 -8 -6 -14 -5 -17 5 -7 18 10 33 43 39 48 8
60 7 60 -8z"/>
<path d="M1577 1303 c-9 -14 3 -54 14 -47 5 3 9 -5 9 -18 1 -26 37 -75 48 -64
4 4 -1 12 -11 17 -11 7 -17 22 -17 44 0 19 -5 35 -10 35 -6 0 -14 10 -19 22
-4 12 -10 17 -14 11z"/>
<path d="M1661 1296 c-10 -12 -4 -13 38 -10 57 4 75 -10 37 -28 -14 -6 -26
-15 -26 -20 0 -12 10 -10 26 6 7 8 18 16 22 18 5 1 12 12 16 24 6 19 2 21 -47
23 -36 1 -58 -3 -66 -13z"/>
<path d="M1985 1220 c-14 -15 -15 -20 -4 -20 25 0 45 18 33 30 -7 7 -16 5 -29
-10z"/>
<path d="M1722 1175 c-29 -35 -35 -68 -19 -105 4 -8 5 -24 3 -35 -3 -11 -5
-27 -6 -35 0 -8 -8 1 -17 20 -8 19 -17 30 -19 24 -5 -11 41 -100 57 -109 20
-13 28 7 13 30 -22 33 -15 109 10 113 10 2 16 0 13 -5 -3 -4 9 -8 26 -8 20 0
31 -5 30 -12 -3 -15 26 -17 47 -3 12 8 11 10 -5 10 -12 0 -25 4 -30 9 -6 5
-21 11 -35 14 -14 2 0 5 30 5 39 0 49 -2 35 -8 -19 -8 -19 -9 3 -9 27 -1 30
25 3 34 -23 7 -96 -2 -121 -15 -10 -5 -21 -10 -24 -10 -14 0 -4 35 20 76 33
56 26 66 -14 19z"/>
<path d="M1613 1138 c30 -70 53 -92 36 -36 -5 18 -9 34 -9 34 0 1 -7 5 -16 8
-11 4 -14 2 -11 -6z"/>
<path d="M1858 1027 c-7 -8 -20 -16 -28 -19 -8 -3 -1 -6 17 -5 24 0 31 4 30
19 -2 22 -2 22 -19 5z"/>
<path d="M2080 1030 c-12 -7 -12 -12 -2 -22 6 -6 12 -26 11 -42 0 -23 -2 -26
-8 -13 -5 15 -9 11 -20 -19 -9 -25 -16 -33 -21 -24 -10 15 -2 42 10 35 5 -3 6
5 2 17 -4 16 -7 18 -10 8 -3 -8 -11 -19 -19 -23 -12 -7 -12 -12 2 -34 16 -24
16 -26 -4 -44 -12 -11 -22 -15 -26 -9 -3 6 -2 10 3 10 6 0 13 7 16 16 4 10 2
13 -6 8 -8 -5 -9 -1 -4 11 5 15 2 14 -17 -5 -13 -14 -24 -27 -24 -30 0 -3 -1
-11 -2 -17 -1 -18 -18 -16 -25 3 -3 8 -2 12 4 9 6 -3 7 1 4 10 -4 10 1 21 12
30 11 7 16 17 11 21 -4 4 -16 -2 -27 -13 -22 -24 -37 -73 -23 -73 5 0 9 -10 8
-22 -1 -13 2 -29 8 -35 6 -8 6 -13 0 -13 -5 0 -10 -7 -10 -15 0 -20 14 -19 26
2 6 12 5 20 -6 28 -12 9 -10 15 13 38 30 30 49 35 40 10 -4 -9 10 1 31 23 21
21 37 42 35 47 -2 4 4 10 13 14 26 9 66 53 60 64 -4 5 4 9 17 8 13 0 17 -3 11
-6 -7 -2 -13 -14 -13 -26 0 -16 3 -18 12 -9 16 16 62 16 52 0 -5 -8 -2 -9 10
-5 10 4 35 -2 57 -13 22 -12 44 -18 49 -15 6 3 10 -1 10 -9 0 -18 28 -21 50
-5 11 8 8 9 -13 4 -19 -4 -26 -2 -22 5 3 5 1 10 -4 10 -22 0 -26 2 -34 16 -4
8 -13 14 -20 14 -7 0 -25 7 -42 16 -86 46 -143 74 -151 74 -5 0 -16 -5 -24
-10z"/>
<path d="M1730 902 c0 -14 -4 -21 -11 -16 -7 4 -7 -1 1 -16 7 -12 9 -35 6 -51
-9 -47 1 -33 18 24 13 46 13 54 1 67 -13 12 -15 12 -15 -8z"/>
<path d="M1770 905 c0 -7 8 -18 18 -24 9 -5 16 -12 15 -15 -2 -3 -3 -20 -3
-37 0 -26 2 -29 14 -20 11 10 16 8 21 -8 3 -12 11 -21 17 -21 7 0 6 5 -1 14
-7 8 -13 39 -14 70 l-2 56 -32 0 c-22 0 -33 -5 -33 -15z"/>
<path d="M2450 869 c0 -6 -7 -17 -17 -24 -25 -19 -8 -35 28 -25 27 8 31 6 39
-18 6 -15 15 -36 21 -46 12 -20 38 -332 39 -458 0 -37 -4 -70 -10 -73 -12 -8
-13 -122 -1 -129 5 -3 12 -26 15 -51 5 -30 12 -45 22 -45 9 0 12 5 8 12 -5 7
-7 143 -5 303 2 235 -1 305 -14 368 -17 85 -45 156 -66 173 -23 19 -59 27 -59
13z"/>
<path d="M1435 842 c-13 -11 -19 -28 -18 -47 1 -20 0 -23 -4 -7 -2 12 -9 22
-14 22 -12 0 -11 -7 2 -32 13 -24 -4 -196 -25 -256 -15 -44 -30 -178 -16 -147
5 11 9 34 9 51 1 17 7 49 15 70 7 22 19 80 25 129 17 128 32 198 44 213 16 20
4 22 -18 4z"/>
<path d="M2070 840 c0 -5 -7 -7 -15 -4 -8 4 -15 1 -15 -6 0 -6 5 -8 10 -5 6 3
10 0 10 -7 0 -9 3 -9 10 2 7 12 12 12 21 3 17 -17 -28 -35 -53 -22 -13 7 -16
6 -12 -5 3 -9 14 -13 27 -10 12 2 34 5 48 6 14 1 26 8 26 15 0 6 -4 10 -8 7
-4 -2 -13 5 -19 16 -11 21 -30 27 -30 10z"/>
<path d="M1760 806 c0 -13 -3 -36 -6 -52 -3 -18 0 -37 10 -49 15 -20 15 -20
30 0 8 11 15 25 15 30 0 6 -4 2 -10 -7 -5 -10 -15 -18 -20 -18 -6 0 -7 5 -4
10 3 6 1 10 -5 10 -7 0 -10 6 -7 13 2 6 9 12 15 12 15 0 16 9 3 45 -12 36 -21
39 -21 6z"/>
<path d="M1856 750 c-6 -16 -5 -25 3 -28 19 -6 12 -20 -16 -29 -15 -5 -22 -12
-17 -16 15 -9 56 23 50 39 -4 10 3 12 27 9 l32 -5 -32 10 c-17 6 -33 18 -35
28 -3 13 -6 12 -12 -8z"/>
<path d="M1881 685 c-13 -14 -28 -25 -33 -25 -5 0 -8 -6 -5 -12 2 -7 -9 -44
-25 -82 -21 -52 -45 -87 -93 -137 -95 -98 -116 -150 -123 -305 -3 -81 -1 -124
5 -124 15 0 23 50 23 140 0 50 7 96 20 134 20 59 83 141 125 163 30 16 85 112
85 149 0 15 9 37 19 48 11 12 21 30 23 41 1 11 8 23 13 27 7 5 7 8 0 8 -5 0
-21 -12 -34 -25z"/>
<path d="M2275 674 c-8 -20 -15 -41 -15 -46 0 -5 -4 -6 -10 -3 -5 3 -7 0 -4
-9 3 -8 1 -30 -4 -50 -6 -22 -7 -38 -1 -42 5 -3 9 7 9 23 0 15 11 58 24 96 26
72 26 91 1 31z"/>
<path d="M1934 670 c0 -27 24 -33 31 -9 4 11 4 23 1 26 -3 4 -6 1 -6 -7 0 -9
-4 -10 -13 -2 -10 8 -13 6 -13 -8z"/>
<path d="M1337 654 c4 -12 3 -15 -5 -10 -8 4 -12 0 -12 -11 0 -11 -4 -23 -8
-28 -14 -16 -54 -135 -49 -148 2 -6 -3 -18 -10 -26 -8 -7 -12 -16 -9 -18 10
-10 38 28 32 42 -3 8 -1 15 4 15 6 0 10 6 10 14 0 23 33 120 44 131 15 14 19
42 6 50 -6 4 -7 -1 -3 -11z"/>
<path d="M2230 501 c17 -12 15 -15 -25 -30 l-30 -11 33 6 c32 6 32 5 21 -23
-13 -35 -12 -324 1 -337 13 -13 13 -63 0 -71 -16 -10 -12 -35 5 -35 23 0 18
501 -5 507 -13 4 -13 3 0 -6z"/>
<path d="M1230 364 c-7 -17 -7 -31 0 -42 9 -14 10 -14 5 4 -4 16 2 28 21 43
25 20 26 21 5 21 -14 0 -25 -9 -31 -26z"/>
<path d="M2025 360 c-24 -25 -27 -32 -15 -43 9 -9 11 -9 6 0 -4 7 7 25 25 43
18 16 28 30 22 30 -5 0 -22 -14 -38 -30z"/>
<path d="M1200 296 c-5 -15 -13 -39 -16 -54 -4 -15 -10 -31 -13 -37 -4 -5 -13
-23 -20 -39 -10 -25 -10 -28 1 -18 8 6 20 27 27 46 10 24 19 33 30 29 14 -4
14 -3 1 6 -12 8 -12 15 -1 46 7 20 10 39 7 42 -3 3 -10 -6 -16 -21z"/>
<path d="M1952 243 c-33 -74 -52 -137 -51 -168 0 -11 5 -4 10 15 18 67 33 115
39 120 8 7 40 93 36 97 -1 2 -17 -27 -34 -64z"/>
<path d="M2288 263 c-3 -27 -1 -52 4 -57 4 -6 8 1 8 16 0 14 3 40 6 57 4 18 2
31 -4 31 -5 0 -12 -21 -14 -47z"/>
<path d="M1528 245 c11 -24 5 -48 -10 -39 -7 5 -8 2 -3 -6 6 -10 10 -10 19 2
11 14 17 18 34 18 4 0 13 9 19 20 11 16 10 18 -1 14 -8 -3 -17 -13 -21 -22 -5
-15 -9 -13 -26 8 -15 18 -18 19 -11 5z"/>
<path d="M1318 173 c-3 -21 -1 -41 5 -44 14 -10 -11 -22 -31 -14 -14 5 -14 7
-2 16 12 9 11 9 -5 4 -11 -4 -37 -11 -58 -15 -63 -12 -70 -30 -12 -29 28 1 68
-3 90 -9 22 -6 40 -10 41 -9 0 1 -1 32 -4 70 -5 73 -17 89 -24 30z"/>
<path d="M2362 177 c-7 -8 -9 -17 -5 -20 3 -4 1 -7 -5 -7 -7 0 -12 -6 -12 -14
0 -8 -3 -16 -7 -18 -13 -5 -63 -76 -63 -87 0 -18 13 -13 50 19 19 16 32 30 28
30 -3 0 2 23 13 52 19 54 20 68 1 45z"/>
<path d="M1570 106 c0 -9 -7 -17 -15 -17 -27 -3 -33 -4 -37 -9 -1 -3 -1 -4 1
-3 2 1 13 -2 24 -8 13 -7 17 -7 13 -1 -3 6 3 13 14 17 22 7 26 20 10 30 -5 3
-10 -1 -10 -9z"/>
<path d="M1819 78 c-10 -19 -3 -23 25 -12 9 3 16 12 16 18 0 19 -30 15 -41 -6z"/>
<path d="M1087 51 c-21 -36 -24 -63 -4 -41 18 20 38 70 29 70 -4 0 -15 -13
-25 -29z"/>
<path d="M1760 60 c0 -5 -7 -10 -15 -10 -8 0 -15 -5 -15 -11 0 -7 9 -9 23 -5
12 3 25 6 30 6 14 0 7 30 -8 30 -8 0 -15 -4 -15 -10z"/>
<path d="M1120 51 c0 -11 29 -18 105 -27 73 -8 67 2 -12 21 -68 17 -93 18 -93
6z"/>
</g>
</svg>
