 <svg  version="1.0" xmlns="http://www.w3.org/2000/svg"  width="825.000000pt" height="549.000000pt" viewBox="0 0 825.000000 549.000000"  preserveAspectRatio="xMidYMid meet">  <g transform="translate(0.000000,549.000000) scale(0.100000,-0.100000)" fill="#0d0c0c" stroke="none"> <path d="M6014 4755 c-7 -18 3 -35 22 -35 20 0 30 30 13 41 -20 12 -29 11 -35 -6z"/> <path d="M5797 4745 c-8 -7 -18 -30 -21 -49 -4 -18 -13 -39 -21 -46 -10 -8 -15 -30 -15 -61 0 -49 -7 -58 -27 -38 -15 15 -62 3 -70 -17 -7 -19 24 -54 48 -54 10 0 23 -9 29 -19 6 -12 17 -17 29 -14 26 7 36 -27 21 -73 -7 -19 -9 -46 -6 -60 5 -17 2 -24 -9 -24 -8 0 -15 -9 -15 -19 0 -11 -8 -22 -18 -26 -21 -6 -46 -51 -37 -66 8 -12 59 -11 72 2 18 18 68 7 71 -17 4 -31 -14 -41 -111 -57 -63 -11 -101 -24 -130 -44 -23 -15 -44 -31 -47 -34 -3 -3 -18 -10 -35 -16 -34 -11 -41 -31 -49 -165 -4 -48 -9 -93 -12 -101 -2 -7 2 -35 11 -62 21 -61 14 -94 -30 -156 -19 -27 -35 -56 -35 -64 0 -17 30 -35 58 -35 20 0 102 -70 102 -87 0 -14 -24 -23 -60 -23 -15 0 -46 -7 -70 -15 -29 -10 -47 -12 -60 -5 -13 7 -21 5 -30 -5 -7 -8 -27 -15 -45 -15 -41 0 -97 -18 -112 -37 -6 -8 -20 -13 -29 -11 -14 2 -19 15 -21 55 -4 58 1 68 74 165 41 54 55 100 33 113 -13 8 -81 -59 -125 -125 -34 -50 -36 -58 -26 -86 6 -17 8 -44 5 -61 -4 -22 2 -44 22 -83 l27 -52 18 23 c10 13 19 27 19 32 0 11 100 8 100 -3 0 -5 -7 -10 -15 -10 -8 0 -15 -4 -15 -10 0 -5 6 -10 14 -10 8 0 18 5 21 10 11 18 98 11 133 -10 26 -16 31 -24 26 -44 -5 -21 -2 -24 39 -30 25 -4 57 -4 71 0 16 4 26 2 26 -5 0 -6 -11 -13 -25 -17 -13 -3 -34 -22 -45 -42 -21 -34 -21 -37 -4 -49 10 -7 27 -13 39 -13 12 0 26 -5 33 -12 9 -9 20 -9 48 1 42 15 54 6 46 -35 -5 -28 -68 -84 -94 -84 -9 0 -19 -8 -23 -17 -11 -35 -55 -56 -129 -61 -91 -6 -126 -23 -126 -61 0 -15 9 -36 20 -46 11 -10 20 -26 20 -36 0 -10 6 -22 13 -26 23 -15 35 -49 42 -119 10 -94 15 -101 49 -69 33 31 42 31 57 3 12 -22 13 -22 22 12 5 19 16 43 24 53 21 23 79 23 92 0 9 -16 12 -16 21 -3 5 8 10 22 10 31 0 9 6 22 14 28 10 9 19 3 40 -29 14 -22 26 -48 26 -58 0 -23 30 -52 54 -52 10 0 35 18 55 39 46 49 76 60 91 31 6 -11 16 -20 22 -20 12 0 68 59 68 71 0 4 8 10 18 13 10 4 32 24 48 46 16 22 35 40 42 40 6 0 12 7 12 15 0 9 9 15 25 15 18 0 26 7 31 24 3 13 17 34 30 47 20 19 35 23 79 22 58 -2 79 12 51 33 -10 7 -16 21 -14 31 4 23 41 29 58 8 21 -26 58 -19 75 15 11 20 26 33 46 37 16 3 32 10 35 14 8 14 40 11 78 -7 19 -9 41 -14 50 -11 22 9 9 37 -17 37 -11 0 -28 6 -36 14 -9 7 -30 16 -47 19 -27 5 -33 3 -38 -16 -4 -17 -8 -19 -17 -10 -9 9 -9 16 0 27 7 8 10 24 6 35 -8 26 -62 71 -85 71 -10 0 -49 14 -87 31 -59 26 -73 29 -103 20 -85 -25 -86 -25 -119 26 -36 54 -39 92 -10 119 22 20 61 91 74 134 14 50 76 206 97 245 24 44 29 48 106 100 61 42 71 77 25 93 l-28 10 27 10 c14 6 30 17 34 24 6 9 10 2 14 -21 3 -19 10 -36 17 -38 17 -6 25 30 14 60 -7 18 -7 36 0 56 7 20 7 41 0 67 -8 28 -7 56 1 101 12 68 5 90 -19 58 -10 -14 -13 -33 -8 -67 6 -50 -5 -63 -25 -30 -7 11 -13 13 -16 5 -3 -6 -19 -32 -35 -57 -30 -45 -51 -57 -64 -36 -4 7 -12 7 -25 0 -25 -13 -73 -13 -87 1 -6 6 -9 28 -6 48 4 32 2 39 -15 43 -12 3 -22 17 -26 37 -3 17 -9 44 -12 60 -4 21 1 39 21 69 22 33 33 41 63 44 40 3 54 23 23 33 -14 4 -21 15 -21 31 0 17 -8 27 -25 34 -21 8 -25 16 -25 50 0 23 5 50 11 62 11 20 12 19 45 -13 19 -18 34 -41 34 -51 0 -19 35 -42 51 -33 6 4 1 20 -12 41 -11 19 -19 41 -16 48 3 8 -1 22 -8 33 -8 10 -15 26 -15 35 0 9 -8 23 -18 30 -11 7 -30 31 -45 54 -21 34 -32 42 -67 48 -26 4 -47 2 -56 -5 -19 -15 -29 -78 -15 -92 16 -16 14 -24 -9 -30 -29 -7 -25 -77 4 -77 15 0 36 -96 29 -133 -10 -52 -63 -17 -63 43 0 13 -5 17 -19 13 -15 -4 -20 4 -29 44 -16 72 -12 123 9 123 26 0 28 22 5 53 -14 20 -19 40 -17 72 2 40 0 45 -18 45 -11 0 -25 -9 -31 -20 -6 -11 -15 -20 -21 -20 -18 0 -88 54 -95 73 -7 21 -37 22 -57 2z m-14 -732 c18 -10 34 -20 37 -21 12 -8 -45 -42 -69 -42 -15 0 -36 -7 -47 -15 -10 -8 -32 -15 -47 -15 -27 0 -75 -24 -89 -44 -8 -12 -7 -13 -30 32 -14 26 -15 38 -7 54 15 28 69 48 128 48 27 0 53 5 56 10 9 15 33 12 68 -7z m-73 -165 c86 -76 77 -72 126 -47 52 28 67 19 31 -19 -31 -32 -35 -60 -11 -69 11 -4 25 4 43 25 14 18 34 32 44 32 9 0 17 -2 17 -4 0 -2 2 -10 5 -18 3 -7 -11 -31 -31 -53 -50 -55 -76 -115 -58 -135 11 -13 11 -24 -3 -69 -18 -62 -11 -172 13 -192 10 -8 14 -33 14 -84 0 -64 -3 -77 -25 -103 -14 -16 -30 -47 -37 -68 -18 -53 -44 -57 -55 -7 -11 57 -8 163 7 208 12 36 11 45 -9 90 -37 86 -83 168 -116 210 -18 22 -40 56 -50 75 -9 19 -24 43 -32 52 -10 11 -14 29 -11 50 3 18 1 47 -4 65 -12 45 4 73 42 73 16 0 32 5 35 10 10 17 26 11 65 -22z m-381 -615 c-15 -18 -34 -1 -25 22 5 14 9 15 21 5 12 -10 13 -16 4 -27z m164 18 c4 -1 7 -5 7 -11 0 -12 -137 -14 -144 -1 -10 16 7 20 68 17 34 -2 64 -4 69 -5z m484 -747 c-9 -9 -28 6 -21 18 4 6 10 6 17 -1 6 -6 8 -13 4 -17z"/> <path d="M6340 4340 c-12 -7 -12 -13 -4 -27 16 -26 39 -22 39 6 0 27 -13 35 -35 21z"/> <path d="M5372 4042 c-1 -14 -12 -27 -29 -34 l-28 -12 28 -4 c36 -5 39 -1 34 40 -2 19 -4 24 -5 10z"/> <path d="M5260 4001 c0 -13 25 -20 39 -11 10 5 8 9 -4 14 -23 8 -35 8 -35 -3z"/> <path d="M5085 3923 c-47 -4 -95 -32 -95 -55 0 -11 38 -10 45 2 4 6 20 3 43 -9 28 -14 50 -17 89 -14 28 3 65 1 81 -5 26 -9 33 -7 51 12 29 31 28 66 -2 66 -13 0 -28 -5 -33 -10 -8 -8 -15 -6 -24 5 -12 15 -39 16 -155 8z"/> <path d="M5275 3521 c-3 -5 -1 -12 5 -16 12 -7 30 2 30 16 0 12 -27 12 -35 0z"/> <path d="M5126 3140 c-12 -35 -10 -100 3 -100 12 0 20 81 10 100 -7 13 -8 13 -13 0z"/> <path d="M5148 2898 c-9 -23 3 -68 18 -68 18 0 18 40 1 64 -11 16 -15 16 -19 4z"/> <path d="M5185 2738 c-13 -40 -17 -129 -12 -221 7 -113 26 -105 51 23 9 47 23 90 31 96 17 13 20 40 6 49 -5 3 -12 1 -16 -5 -10 -16 -28 -12 -21 5 7 19 -10 65 -24 65 -6 0 -12 -6 -15 -12z"/> <path d="M7376 2574 c-9 -8 -16 -18 -16 -22 0 -4 -16 -18 -35 -31 -29 -20 -35 -30 -35 -60 0 -20 7 -46 15 -58 13 -19 13 -25 1 -50 -44 -86 -58 -162 -62 -341 -3 -170 -2 -180 22 -247 14 -38 26 -83 26 -100 0 -16 6 -70 14 -120 7 -49 21 -142 30 -205 9 -63 27 -166 40 -230 13 -63 24 -130 24 -148 0 -18 4 -40 9 -50 5 -9 13 -35 19 -57 10 -38 43 -137 61 -180 16 -40 43 -121 57 -170 8 -27 17 -57 20 -65 4 -8 8 -43 9 -77 2 -69 24 -113 56 -113 11 0 22 -8 25 -17 3 -10 10 -26 15 -35 5 -10 9 -31 9 -47 0 -62 39 -114 61 -80 12 19 11 113 -1 125 -14 14 -14 193 -1 884 8 444 8 655 1 730 -28 274 -72 447 -159 614 -43 85 -77 123 -130 149 -42 21 -55 21 -75 1z"/> <path d="M5285 2403 c-4 -26 -10 -64 -15 -84 -4 -21 -5 -41 -1 -47 6 -9 96 -11 105 -1 2 2 -9 42 -24 89 -34 101 -55 115 -65 43z"/> <path d="M5570 2257 c0 -9 -8 -28 -17 -45 -29 -51 8 -88 40 -39 10 16 13 34 8 57 -7 34 -31 55 -31 27z"/> <path d="M5602 2124 c1 -9 9 -19 16 -22 9 -3 13 2 10 14 -1 9 -9 19 -16 22 -9 3 -13 -2 -10 -14z"/> <path d="M5683 2096 c-13 -13 -23 -31 -23 -40 0 -10 -11 -19 -30 -23 -17 -3 -35 -14 -41 -24 -5 -11 -16 -19 -24 -19 -28 0 -58 -40 -52 -70 7 -30 -28 -142 -68 -222 -14 -27 -25 -56 -25 -64 0 -8 -16 -47 -36 -86 -36 -67 -105 -151 -242 -288 -126 -127 -247 -322 -300 -485 -27 -81 -41 -204 -47 -425 -3 -102 -8 -222 -10 -267 l-5 -83 42 0 43 0 2 58 c0 31 6 109 11 172 6 63 11 188 11 277 1 160 2 164 37 265 20 57 39 119 43 138 13 60 41 102 126 190 45 47 84 90 86 96 6 15 108 104 120 104 32 0 101 65 136 128 20 37 54 88 73 115 38 50 55 103 65 202 10 90 22 120 67 161 42 38 47 53 49 151 0 24 5 33 21 35 27 4 36 28 11 28 -10 0 -28 -11 -40 -24z"/> <path d="M5540 2070 c0 -16 5 -21 23 -18 12 2 22 10 22 18 0 8 -10 16 -22 18 -18 3 -23 -2 -23 -18z"/> <path d="M4197 1953 c-10 -55 -8 -121 2 -127 12 -8 21 29 21 89 0 66 -15 90 -23 38z"/> <path d="M5430 1910 c0 -20 1 -20 25 -4 14 9 25 18 25 20 0 2 -11 4 -25 4 -18 0 -25 -5 -25 -20z"/> <path d="M4136 1594 c-3 -9 -6 -26 -6 -39 0 -13 -4 -27 -10 -30 -5 -3 -10 -23 -9 -43 0 -20 3 -30 6 -22 3 8 14 34 24 57 21 45 24 79 10 87 -5 3 -12 -1 -15 -10z"/> <path d="M6675 1421 c-3 -5 4 -12 15 -16 24 -8 25 -24 5 -51 -8 -10 -15 -27 -15 -36 0 -9 -13 -39 -28 -65 -16 -26 -31 -55 -34 -65 -4 -9 -19 -22 -34 -30 -16 -8 -31 -28 -39 -51 -16 -46 -52 -87 -76 -87 -21 0 -76 -44 -83 -68 -3 -9 -20 -25 -37 -34 -16 -10 -27 -22 -24 -28 10 -16 -37 -101 -61 -111 -20 -7 -23 -17 -28 -106 -6 -80 -12 -108 -36 -155 -30 -60 -30 -68 6 -68 16 0 24 7 26 23 5 34 23 21 22 -16 -6 -139 -16 -167 -54 -147 -44 24 -90 -5 -104 -65 -9 -37 -43 -75 -68 -75 -10 0 -29 -17 -42 -39 -14 -22 -34 -42 -45 -46 -17 -5 -71 -65 -71 -79 0 -3 195 -6 434 -6 l433 0 6 73 c4 39 3 97 -1 128 -5 30 -5 125 -2 210 8 186 -4 977 -15 1002 -8 18 -40 23 -50 8z m25 -1207 c0 -15 -18 -18 -44 -8 -23 9 -20 22 7 26 28 5 37 1 37 -18z"/> <path d="M3976 542 c-2 -4 -7 -24 -11 -44 -7 -39 -58 -88 -91 -88 -10 0 -25 -6 -33 -13 -22 -19 -129 -47 -180 -47 -54 0 -121 -33 -121 -61 0 -25 27 -36 51 -21 32 20 148 16 209 -8 30 -12 78 -26 106 -30 28 -4 65 -15 83 -24 17 -9 36 -14 41 -11 15 9 12 56 -5 89 -15 28 -21 86 -24 214 -1 46 -11 66 -25 44z"/> <path d="M5754 475 c-3 -14 -4 -28 -1 -31 10 -10 27 7 27 26 0 30 -19 33 -26 5z"/> <path d="M5730 401 c0 -17 2 -31 4 -31 8 0 13 51 5 56 -5 3 -9 -9 -9 -25z"/> <path d="M7036 395 c-8 -19 -29 -43 -46 -53 -16 -9 -30 -21 -30 -25 0 -4 -16 -25 -36 -45 -49 -50 -124 -171 -124 -200 0 -20 4 -22 23 -16 12 4 52 27 88 50 36 24 73 44 81 44 8 0 28 15 46 33 32 33 32 34 32 134 0 56 -4 105 -10 108 -5 3 -16 -10 -24 -30z"/> <path d="M4710 285 c0 -9 5 -15 11 -13 6 2 11 8 11 13 0 5 -5 11 -11 13 -6 2 -11 -4 -11 -13z"/> <path d="M3940 131 c0 -13 37 -24 51 -15 8 4 7 9 -2 15 -19 12 -49 11 -49 0z"/> <path d="M3520 100 c0 -5 18 -10 40 -10 22 0 40 5 40 10 0 6 -18 10 -40 10 -22 0 -40 -4 -40 -10z"/> </g> </svg> 